PathFileType	4	(X/Y/Z)	./resultDataOpenSim/trcMotMarkerGrf/sub06/qtm-13-05.trc
DataRate	CameraRate	NumFrames	NumMarkers	Units	OrigDataRate	OrigDataStartFrame	OrigNumFrames
250.000000	250.000000	9	24	m	250.000000	124	493
Frame#	Time	L.Toe.Tip			R.Toe.Tip			L.Ankle.Lat			R.Ankle.Lat			L.Ankle.Med			R.Ankle.Med			L.Heel			R.Heel			L.Knee.Lat			R.Knee.Lat			L.Knee.Med			R.Knee.Med			L.Thigh.Upper			R.Thigh.Upper			L.ASIS			R.ASIS			V.Sacral			L.Acromium			R.Acromium			C7			L.Elbow			R.Elbow			L.Wrist.Lat			R.Wrist.Lat
		X1	Y1	Z1	X2	Y2	Z2	X3	Y3	Z3	X4	Y4	Z4	X5	Y5	Z5	X6	Y6	Z6	X7	Y7	Z7	X8	Y8	Z8	X9	Y9	Z9	X10	Y10	Z10	X11	Y11	Z11	X12	Y12	Z12	X13	Y13	Z13	X14	Y14	Z14	X15	Y15	Z15	X16	Y16	Z16	X17	Y17	Z17	X18	Y18	Z18	X19	Y19	Z19	X20	Y20	Z20	X21	Y21	Z21	X22	Y22	Z22	X23	Y23	Z23	X24	Y24	Z24

124	0.492	-0.05989674	0.13605986	-0.060676504	-0.7483197	0.035607555	0.10473129	-0.18590168	0.11139359	-0.082213889	-0.87689437	0.076690521	0.12568387	-0.19051308	0.12655767	0.0025765515	-0.8547329	0.090268231	0.037829298	-0.23327042	0.04921167	-0.033921609	-0.93667239	0.060994436	0.065020729	-0.32769379	0.45028383	-0.08380687	-0.69101329	0.418982	0.15439332	-0.35160344	0.43760132	0.042267555	-0.72175972	0.42278645	0.024510113	-0.52778841	0.78479823	-0.13335282	-0.5849223	0.76651176	0.21126067	-0.46840241	0.82532673	-0.079414906	-0.4786496	0.81490819	0.1689067	-0.65912772	0.90400689	0.041340083	-0.53100009	1.2997602	-0.14617524	-0.495695	1.296629	0.21367051	-0.58795827	1.3404847	0.038910079	-0.65321957	1.0089175	-0.18882002	-0.51644632	0.98248991	0.31954186	-0.56699259	0.78609187	-0.24647403	-0.28280422	0.90211305	0.2748439
125	0.496	-0.047751702	0.13807531	-0.060389574	-0.74821179	0.03559803	0.10474478	-0.17358608	0.1121456	-0.082193708	-0.87606848	0.077821221	0.12579072	-0.17866655	0.12707821	0.0024461527	-0.85382521	0.091139929	0.037920517	-0.22035304	0.049260484	-0.034054163	-0.93614316	0.062727966	0.065079806	-0.31912324	0.449127	-0.083468089	-0.68655999	0.41807908	0.15444652	-0.34388999	0.43577846	0.042545804	-0.71645832	0.42189459	0.024356898	-0.51973875	0.78229225	-0.13326095	-0.57897598	0.7645461	0.2099619	-0.46042791	0.82272784	-0.079185201	-0.47204254	0.81299059	0.16928896	-0.65181534	0.90219364	0.041226752	-0.52451952	1.2974488	-0.1464792	-0.48890563	1.2946287	0.21360185	-0.58116738	1.3386202	0.038661997	-0.64727103	1.0069244	-0.18844794	-0.50802206	0.98029565	0.31954716	-0.5635451	0.78366172	-0.24712281	-0.27409328	0.90197658	0.27394555
126	0.5	-0.036185499	0.13951995	-0.060159312	-0.74811837	0.035595654	0.10476546	-0.16187278	0.11260238	-0.082107698	-0.87504404	0.07903778	0.12590809	-0.16739415	0.12737036	0.0023857272	-0.85279628	0.092116865	0.038022197	-0.20811636	0.049140489	-0.033982672	-0.93554607	0.064563815	0.065215056	-0.31049552	0.448095	-0.083112267	-0.68198908	0.41714548	0.15450609	-0.33603968	0.43412198	0.042738218	-0.71103341	0.42095134	0.024260093	-0.51162887	0.77987544	-0.13316772	-0.57323964	0.76263317	0.20882842	-0.4524002	0.82016462	-0.07896181	-0.46553705	0.81090824	0.16987242	-0.64374197	0.90019304	0.041508723	-0.51805476	1.2951906	-0.14680115	-0.48211572	1.2926622	0.21351494	-0.57435797	1.3367429	0.038405754	-0.6412235	1.0049545	-0.18807699	-0.49970377	0.97813486	0.31953146	-0.55987105	0.78131597	-0.24769932	-0.26546426	0.90175593	0.27303861
127	0.504	-0.02519917	0.14037883	-0.059955365	-0.74805213	0.035595033	0.1047929	-0.15076282	0.11272967	-0.081957458	-0.87395002	0.080323936	0.12603715	-0.1566829	0.12740909	0.0024156916	-0.85164442	0.093187281	0.038132207	-0.19657866	0.048818585	-0.033747252	-0.93491566	0.066532236	0.065457707	-0.30183655	0.44712977	-0.082768912	-0.67729257	0.41618962	0.15457678	-0.3280332	0.43261992	0.042866229	-0.70547036	0.41995774	0.024200791	-0.50346808	0.77755961	-0.13307023	-0.56766994	0.76088381	0.20800475	-0.44432639	0.81764411	-0.078728283	-0.45915107	0.80870728	0.17065089	-0.63504491	0.89807189	0.041972112	-0.51160916	1.2930095	-0.14714099	-0.47531011	1.2907425	0.21338834	-0.56753398	1.3348555	0.038143375	-0.63508439	1.0030165	-0.18771239	-0.4914422	0.97602043	0.31946398	-0.55600717	0.77904088	-0.24821541	-0.2569047	0.90143825	0.27210907
128	0.508	-0.014798689	0.14065556	-0.059739428	-0.74801924	0.035592973	0.10482865	-0.14025444	0.11250634	-0.081747	-0.87292564	0.081664074	0.12620054	-0.14650826	0.12715226	0.002535092	-0.8504424	0.094328888	0.038287278	-0.18576104	0.048268561	-0.033424539	-0.93430277	0.068664008	0.065821053	-0.29311027	0.44616163	-0.082494536	-0.67245073	0.4152173	0.15466483	-0.31984555	0.43124825	0.04296677	-0.69974665	0.41890982	0.024140343	-0.49528336	0.77536061	-0.13296184	-0.56221596	0.7593905	0.20759849	-0.43621563	0.81517344	-0.078473289	-0.45272947	0.80652939	0.17144234	-0.62596552	0.89586016	0.042171389	-0.50515132	1.2909259	-0.14749524	-0.46847657	1.288874	0.21321067	-0.5606966	1.3329678	0.037872186	-0.62887125	1.0011209	-0.18735285	-0.48314143	0.97396185	0.31930018	-0.5519554	0.77683414	-0.24867045	-0.24840851	0.90101866	0.27117129
129	0.512	-0.0049888067	0.14036637	-0.059473072	-0.74799521	0.035587753	0.10486869	-0.13034536	0.11191981	-0.081487619	-0.8719941	0.083053602	0.12641976	-0.13686166	0.12655313	0.0027285011	-0.84931606	0.09554187	0.038549847	-0.175684	0.047465055	-0.033095019	-0.93368404	0.070951081	0.066263484	-0.28426911	0.44514153	-0.082317991	-0.66745892	0.41423288	0.15476891	-0.31146214	0.42998224	0.043076356	-0.6938469	0.41780098	0.02404975	-0.48709639	0.77328243	-0.13284831	-0.55680763	0.75819039	0.20761993	-0.42807576	0.81276437	-0.078189948	-0.44605556	0.80448383	0.17202154	-0.61682397	0.89356535	0.041792982	-0.4986623	1.2889496	-0.14786491	-0.46161097	1.2870505	0.21297909	-0.55384375	1.331093	0.037584615	-0.62259636	0.99927604	-0.18699304	-0.47477717	0.97197388	0.31903365	-0.54771764	0.77469615	-0.24906397	-0.2399859	0.90050798	0.27025347
130	0.516	0.0042319622	0.13952878	-0.05912251	-0.74793585	0.035574372	0.10490498	-0.12103718	0.1109633	-0.081190783	-0.87107075	0.084507525	0.12670064	-0.12775492	0.12558035	0.0029802588	-0.84833181	0.096831721	0.038938848	-0.16635308	0.04638721	-0.03280052	-0.93295957	0.07336021	0.066692212	-0.27534666	0.44405886	-0.082202079	-0.66232764	0.41323484	0.15488338	-0.30289936	0.4288085	0.043198418	-0.68779579	0.41663261	0.023940726	-0.47890295	0.77131381	-0.13274627	-0.55136896	0.75723657	0.20794826	-0.41989783	0.81043624	-0.07787666	-0.43910467	0.80257328	0.17236042	-0.60808711	0.89132271	0.041005844	-0.4921465	1.2870535	-0.14824997	-0.45471194	1.2852658	0.21269239	-0.54697167	1.3292424	0.037270423	-0.61623416	0.99748457	-0.1866267	-0.46643969	0.97007236	0.31870645	-0.54334937	0.77261579	-0.24941144	-0.23165053	0.89991858	0.26936239
131	0.52	0.012869974	0.1381541	-0.058667086	-0.74782375	0.035544309	0.10493874	-0.11233083	0.10963795	-0.080859592	-0.87007556	0.086047569	0.12703392	-0.11919968	0.12422608	0.0032821418	-0.84738685	0.098185965	0.039389936	-0.15775787	0.045030069	-0.03254617	-0.93207287	0.075885473	0.067061579	-0.26643829	0.44292684	-0.08208661	-0.65705563	0.41221747	0.15500947	-0.29420429	0.42772836	0.043291743	-0.68165999	0.41541448	0.023861329	-0.47067567	0.76944287	-0.13267663	-0.54586154	0.75642333	0.20840692	-0.41165089	0.80820719	-0.077555883	-0.43205969	0.80074145	0.17262797	-0.6001066	0.88933996	0.040212679	-0.48557912	1.2851738	-0.14863388	-0.44778026	1.2835207	0.21235465	-0.54007843	1.3274207	0.036918894	-0.60971935	0.99574363	-0.18624187	-0.4582389	0.9682564	0.31836121	-0.53889047	0.77058461	-0.24972325	-0.22340808	0.89925131	0.26848522
132	0.524	0.020934169	0.13624738	-0.05810779	-0.74767822	0.035493727	0.1049844	-0.1042221	0.107954	-0.080494321	-0.8689729	0.087685188	0.12740652	-0.11119616	0.12249682	0.0036288019	-0.84628735	0.099597891	0.039823094	-0.14988348	0.043399675	-0.032319609	-0.93105055	0.078552501	0.067422394	-0.25758516	0.4417619	-0.081959714	-0.65162971	0.41117854	0.15514823	-0.28542286	0.42674829	0.043305075	-0.67548257	0.41415934	0.023851406	-0.46238383	0.76766661	-0.13266146	-0.54030848	0.75563787	0.20889754	-0.40330478	0.80608076	-0.077263541	-0.42507816	0.79895324	0.17296574	-0.59274466	0.88765667	0.039563613	-0.47891562	1.2832725	-0.14900422	-0.44082011	1.2818216	0.2119723	-0.53316173	1.3256256	0.036524382	-0.60302302	0.99405374	-0.18582947	-0.45020062	0.96650633	0.31799708	-0.53433295	0.7686038	-0.25000437	-0.21525877	0.89850446	0.26761513
